<svg xmlns="http://www.w3.org/2000/svg" width="24" height="24" viewBox="0 0 24 24">
    <path data-name="패스 43174" d="M0 0h24v24H0z" style="fill:none"/>
    <path data-name="패스 43175" d="M5.693 3.3a4.046 4.046 0 0 1 4.917 5.739l12.379 12.38-1.634 1.634L8.974 10.674a4.048 4.048 0 0 1-5.735-4.918l2.585 2.585a1.734 1.734 0 1 0 2.452-2.452L5.691 3.3zm11.983 2.18 3.678-2.044 1.634 1.634-2.043 3.679-2.045.41-2.45 2.451-1.635-1.634 2.452-2.452.409-2.044zm-7.766 9.4 1.634 1.634-6.13 6.13a1.156 1.156 0 0 1-1.724-1.533l.09-.1 6.13-6.13z" transform="translate(-1.348 -1.348)" style="fill:#fafafa"/>
</svg>
