<svg xmlns="http://www.w3.org/2000/svg" width="24" height="24" viewBox="0 0 24 24">
    <path data-name="패스 23283" d="M0 0h24v24H0z" style="fill:none"/>
    <path data-name="패스 23284" d="m4.929 2.929 1.414 1.414a8 8 0 0 0 0 11.314L4.93 17.07a10 10 0 0 1 0-14.141zm14.142 0a10 10 0 0 1 0 14.142l-1.414-1.414a8 8 0 0 0 0-11.314L19.07 2.93zM7.757 5.757l1.415 1.415a4 4 0 0 0 0 5.656l-1.415 1.415a6 6 0 0 1 0-8.486zm8.486 0a6 6 0 0 1 0 8.486l-1.415-1.415a4 4 0 0 0 0-5.656zM12 12a2 2 0 1 1 2-2 2 2 0 0 1-2 2zm0 2a1.2 1.2 0 0 1 1.184.983L14.5 22h-5l1.316-7.017A1.2 1.2 0 0 1 12 14z" style="fill:#fafafa"/>
</svg>
