<svg xmlns="http://www.w3.org/2000/svg" width="24" height="24" viewBox="0 0 24 24">
    <path data-name="합치기 182" d="M16.573 15.847a1.032 1.032 0 0 1 0-1.414 9.319 9.319 0 0 0 0-12.726 1.033 1.033 0 0 1 0-1.415.93.93 0 0 1 .649-.292h.054a.93.93 0 0 1 .648.293 11.237 11.237 0 0 1 3.068 7.681v.194a11.237 11.237 0 0 1-3.068 7.681.925.925 0 0 1-1.35 0zm-7.625 0-4.51-3.777H.955a.978.978 0 0 1-.955-1v-6a.978.978 0 0 1 .955-1h3.483L8.949.289a.919.919 0 0 1 1.01-.12 1 1 0 0 1 .541.9v14a1 1 0 0 1-.541.9.912.912 0 0 1-.413.1.93.93 0 0 1-.597-.218zM1.909 10.07h2.864a.928.928 0 0 1 .6.219l3.221 2.7V3.151l-3.221 2.7a.928.928 0 0 1-.6.219H1.909zm11.3 2.237a1.032 1.032 0 0 1 0-1.414 4.139 4.139 0 0 0 0-5.656 1.032 1.032 0 0 1 0-1.414.924.924 0 0 1 1.35 0 6.209 6.209 0 0 1 0 8.483.923.923 0 0 1-1.35 0z" transform="translate(1.504 3.93)" style="fill:#fafafa;stroke:transparent;stroke-miterlimit:10"/>
    <path data-name="사각형 9415" style="fill:none" d="M0 0h24v24H0z"/>
</svg>
